PathFileType	4	(X/Y/Z)	/Users/itak/Documents/Research/Walk-IL/dataset/trc/00117_00007.trc
DataRate	CameraRate	NumFrames	NumMarkers	Units	OrigDataRate	OrigDataStartFrame	OrigNumFrames
100.000000	100.000000	4	53	mm	100.000000	394	526
Frame#	Time	RPSI			LPSI			L3			STRN			T10			C7			CLAV			RBAK			LBAK			LSHO			LUPA			LAEL			LAOL			LWTS			LWPS			LFRA			LIFD			LHPS			LHTS			RSHO			RUPA			RAEL			RAOL			RWTS			RWPS			RFRA			RIFD			RHTS			RHPS			RBHD			LFHD			RFHD			LBHD			LHIP			RHIP			RASI			LASI			LKNE			LTHI			LANK			LTIP			LTOE			LMT1			LMT5			LHEE			RKNE			RTHI			RANK			RTIP			RTOE			RMT1			RMT5			RHEE			
		X1	Y1	Z1	X2	Y2	Z2	X3	Y3	Z3	X4	Y4	Z4	X5	Y5	Z5	X6	Y6	Z6	X7	Y7	Z7	X8	Y8	Z8	X9	Y9	Z9	X10	Y10	Z10	X11	Y11	Z11	X12	Y12	Z12	X13	Y13	Z13	X14	Y14	Z14	X15	Y15	Z15	X16	Y16	Z16	X17	Y17	Z17	X18	Y18	Z18	X19	Y19	Z19	X20	Y20	Z20	X21	Y21	Z21	X22	Y22	Z22	X23	Y23	Z23	X24	Y24	Z24	X25	Y25	Z25	X26	Y26	Z26	X27	Y27	Z27	X28	Y28	Z28	X29	Y29	Z29	X30	Y30	Z30	X31	Y31	Z31	X32	Y32	Z32	X33	Y33	Z33	X34	Y34	Z34	X35	Y35	Z35	X36	Y36	Z36	X37	Y37	Z37	X38	Y38	Z38	X39	Y39	Z39	X40	Y40	Z40	X41	Y41	Z41	X42	Y42	Z42	X43	Y43	Z43	X44	Y44	Z44	X45	Y45	Z45	X46	Y46	Z46	X47	Y47	Z47	X48	Y48	Z48	X49	Y49	Z49	X50	Y50	Z50	X51	Y51	Z51	X52	Y52	Z52	X53	Y53	Z53	

395	3.94	-1566.341918945312	1109.0400390625	-232.7360534667969	-1563.283569335938	1116.098876953125	-367.8461303710938	-1569.506713867188	1156.323486328125	-301.2214660644531	-1313.526123046875	1328.453369140625	-292.6441955566406	-1571.377075195312	1312.693603515625	-296.450439453125	-1489.187866210938	1596.856567382812	-312.5482788085938	-1325.60302734375	1467.809936523438	-300.079345703125	-1571.265991210938	1424.790771484375	-221.6730499267578	-1498.276123046875	1577.712280273438	-414.0032348632812	-1414.427856445312	1550.036865234375	-481.06884765625	-1456.311767578125	1424.364013671875	-550.2610473632812	-1485.982421875	1209.687866210938	-578.3646850585938	-1549.299682617188	1207.993896484375	-517.4873046875	-1451.31884765625	932.6771850585938	-553.6118774414062	-1537.105834960938	930.2849731445312	-577.2305297851562	-1497.908447265625	1093.816162109375	-588.6763916015625	-1492.46240234375	742.0305786132812	-537.1065673828125	-1529.084228515625	850.1466064453125	-582.103759765625	-1460.547607421875	842.3521118164062	-568.2011108398438	-1439.209228515625	1574.897094726562	-130.6448211669922	-1463.254638671875	1505.18505859375	-65.27864837646484	-1490.7109375	1211.662109375	-27.34984588623047	-1502.7548828125	1206.366821289062	-123.5818328857422	-1335.104248046875	976.63037109375	-39.12581253051758	-1407.4462890625	955.7249145507812	-2.685850858688354	-1464.968017578125	1138.72119140625	-9.935870170593262	-1298.111328125	783.7333984375	-47.88925552368164	-1298.349365234375	870.8117065429688	-29.70320701599121	-1364.520141601562	859.9354248046875	5.582485198974609	-1434.40966796875	1760.003173828125	-235.5771331787109	-1276.278076171875	1810.579223632812	-380.9052124023438	-1267.7509765625	1820.899047851562	-251.4705505371094	-1449.746459960938	1753.743896484375	-369.6609802246094	-1465.634521484375	1030.213500976562	-476.0010681152344	-1453.565185546875	1003.771850585938	-108.908576965332	-1362.025634765625	1072.739624023438	-157.634033203125	-1358.021240234375	1085.299560546875	-421.9288940429688	-1242.596557617188	570.7117919921875	-455.1142883300781	-1328.84228515625	696.471923828125	-481.3772583007812	-1277.374755859375	47.53908157348633	-461.4827575683594	-1305.68017578125	305.404296875	-481.7296752929688	-1048.856689453125	89.46162414550781	-451.9080505371094	-1116.700805664062	79.28482818603516	-400.2759704589844	-1160.250366210938	60.16145706176758	-506.4430541992188	-1332.470825195312	40.42636108398438	-386.4600524902344	-1468.923706054688	510.3833312988281	-179.4031677246094	-1437.0009765625	788.3951416015625	-129.6970977783203	-1670.115600585938	29.04660606384277	-222.5584411621094	-1518.504760742188	378.2847290039062	-175.3567962646484	-1435.18212890625	43.35160064697266	-253.3197784423828	-1489.880493164062	30.71538925170898	-299.4490356445312	-1536.26025390625	39.21814727783203	-189.5161590576172	-1724.323608398438	34.68952178955078	-277.1065979003906	
396	3.95	-1572.277465820312	1109.9697265625	-231.9456634521484	-1569.38623046875	1117.113525390625	-367.1265563964844	-1575.834838867188	1157.46435546875	-300.4840087890625	-1319.536010742188	1329.904418945312	-292.0892333984375	-1577.803466796875	1314.133422851562	-296.1075134277344	-1495.0791015625	1598.134521484375	-312.0331420898438	-1331.5146484375	1469.296264648438	-299.4430541992188	-1577.4267578125	1426.098754882812	-221.3609924316406	-1504.0634765625	1579.142578125	-413.5196533203125	-1420.1484375	1551.516235351562	-480.5350952148438	-1461.903564453125	1425.773071289062	-549.6609497070312	-1491.478149414062	1210.905029296875	-577.2177124023438	-1554.9189453125	1209.398681640625	-516.49267578125	-1456.417602539062	934.0429077148438	-551.4879150390625	-1542.11962890625	931.4171752929688	-575.33837890625	-1503.217529296875	1094.991455078125	-587.180419921875	-1497.833984375	743.1192016601562	-534.5097045898438	-1533.999389648438	851.2987670898438	-579.8975830078125	-1465.451782226562	843.600341796875	-565.7593994140625	-1445.433349609375	1576.099487304688	-130.0703887939453	-1469.643188476562	1506.383666992188	-64.79205322265625	-1497.907592773438	1213.020751953125	-27.15569877624512	-1509.500366210938	1207.805053710938	-123.4631729125977	-1343.829467773438	976.886474609375	-38.22153091430664	-1416.468994140625	956.560546875	-2.124059677124023	-1472.623657226562	1139.974487304688	-9.610559463500977	-1308.245361328125	783.6923828125	-46.55070877075195	-1307.884765625	870.8018188476562	-28.45195388793945	-1374.277587890625	860.4683227539062	6.499582290649414	-1440.197143554688	1761.15576171875	-234.868408203125	-1281.72509765625	1811.793212890625	-379.7836303710938	-1273.469848632812	1821.957641601562	-250.3252410888672	-1455.3203125	1755.0751953125	-369.0460510253906	-1471.775634765625	1031.435424804688	-475.2534484863281	-1458.93212890625	1004.958374023438	-108.2900085449219	-1367.53515625	1074.36865234375	-157.3006896972656	-1364.010131835938	1086.847412109375	-421.6173400878906	-1246.855834960938	572.2052612304688	-454.4912414550781	-1333.313354492188	698.4818725585938	-480.2557067871094	-1294.683349609375	49.54963302612305	-462.2174377441406	-1316.192626953125	307.8926696777344	-481.556884765625	-1065.288208007812	86.56667327880859	-453.1458129882812	-1133.1826171875	77.37255859375	-401.425048828125	-1177.576538085938	59.99953079223633	-507.5200805664062	-1349.66796875	43.20624923706055	-387.0752563476562	-1471.443481445312	511.4394836425781	-179.6425170898438	-1441.08203125	789.4783325195312	-129.4074859619141	-1670.172119140625	28.90981292724609	-222.3240356445312	-1520.1103515625	379.0253295898438	-175.5004272460938	-1435.275512695312	43.34686279296875	-253.2890167236328	-1490.131469726562	30.81203842163086	-299.4463806152344	-1536.353637695312	39.25989532470703	-189.5481872558594	-1724.433471679688	34.42182922363281	-276.8814086914062	
397	3.96	-1578.021240234375	1110.848754882812	-231.2143707275391	-1575.193481445312	1118.145629882812	-366.4565734863281	-1581.9111328125	1158.564575195312	-299.7952270507812	-1325.331787109375	1331.374755859375	-291.5500183105469	-1584.06396484375	1315.505004882812	-295.7492980957031	-1500.89501953125	1599.384887695312	-311.5471496582031	-1337.322875976562	1470.78662109375	-298.8705444335938	-1583.431762695312	1427.358764648438	-221.0531311035156	-1509.799194335938	1580.544799804688	-413.0570678710938	-1425.806762695312	1553.021484375	-480.0399780273438	-1467.431762695312	1427.221435546875	-549.130859375	-1496.941772460938	1212.169921875	-576.1900634765625	-1560.44287109375	1210.81103515625	-515.5753173828125	-1461.139770507812	935.4992065429688	-549.5222778320312	-1546.789794921875	932.5426025390625	-573.5108642578125	-1508.375244140625	1096.1982421875	-585.8063354492188	-1502.673706054688	744.2074584960938	-531.9520874023438	-1538.448364257812	852.429443359375	-577.7314453125	-1469.86865234375	844.926513671875	-563.4481811523438	-1451.510498046875	1577.31005859375	-129.5539398193359	-1475.859497070312	1507.598876953125	-64.34403228759766	-1504.979125976562	1214.414306640625	-26.99879837036133	-1516.16015625	1209.283447265625	-123.3735809326172	-1352.585815429688	977.0761108398438	-37.44076156616211	-1425.50048828125	957.3927001953125	-1.655008792877197	-1480.187377929688	1141.249267578125	-9.337978363037109	-1318.583740234375	783.5759887695312	-45.44429779052734	-1317.516967773438	870.701416015625	-27.3946704864502	-1384.128662109375	860.9610595703125	7.266475200653076	-1445.906616210938	1762.330444335938	-234.2303771972656	-1287.076904296875	1812.972290039062	-378.7469787597656	-1279.096923828125	1822.989868164062	-249.2695770263672	-1460.816040039062	1756.439086914062	-368.5127868652344	-1477.603515625	1032.724731445312	-474.5509338378906	-1464.153076171875	1006.04833984375	-107.7387466430664	-1372.9150390625	1075.9326171875	-156.9243927001953	-1369.721435546875	1088.413818359375	-421.271728515625	-1251.090942382812	573.6011962890625	-453.7640991210938	-1337.569702148438	700.5258178710938	-479.1370544433594	-1312.278442382812	51.84378051757812	-463.1479797363281	-1326.765380859375	310.5177612304688	-481.5175170898438	-1082.148803710938	83.81439208984375	-453.8196105957031	-1150.234741210938	75.62152862548828	-402.2572021484375	-1195.052368164062	60.07692337036133	-508.4312744140625	-1367.390502929688	46.25849914550781	-388.0854187011719	-1473.972534179688	512.45751953125	-179.9160766601562	-1445.064331054688	790.4848022460938	-129.1740875244141	-1670.223754882812	28.81839370727539	-222.1477203369141	-1521.7509765625	379.746337890625	-175.6860046386719	-1435.356567382812	43.33884811401367	-253.2611389160156	-1490.369873046875	30.88542175292969	-299.4518127441406	-1536.4404296875	39.31451034545898	-189.5989074707031	-1724.555786132812	34.16793060302734	-276.72412109375	
398	3.97	-1583.565673828125	1111.667236328125	-230.5528259277344	-1580.70556640625	1119.165283203125	-365.8426208496094	-1587.713745117188	1159.595092773438	-299.1676330566406	-1330.916381835938	1332.818359375	-291.0181274414062	-1590.158813476562	1316.77392578125	-295.3883056640625	-1506.631225585938	1600.578369140625	-311.0863952636719	-1343.020263671875	1472.234008789062	-298.34814453125	-1589.28466796875	1428.537353515625	-220.7453460693359	-1515.473999023438	1581.877319335938	-412.6114196777344	-1431.393432617188	1554.49267578125	-479.5753173828125	-1472.889282226562	1428.645751953125	-548.65869140625	-1502.3642578125	1213.422119140625	-575.2849731445312	-1565.876831054688	1212.166381835938	-514.7482299804688	-1465.487548828125	936.9928588867188	-547.71484375	-1551.116943359375	933.6068115234375	-571.7744140625	-1513.378784179688	1097.377319335938	-584.5616455078125	-1506.95947265625	745.2625122070312	-529.421875	-1542.433837890625	853.4828491210938	-575.6273803710938	-1473.806762695312	846.2786865234375	-561.2677001953125	-1457.443115234375	1578.489135742188	-129.0830078125	-1481.912719726562	1508.785888671875	-63.9271240234375	-1511.918579101562	1215.790405273438	-26.85908317565918	-1522.744873046875	1210.746704101562	-123.2927780151367	-1361.341186523438	977.1746826171875	-36.79021835327148	-1434.50634765625	958.1837158203125	-1.264264702796936	-1487.64697265625	1142.495971679688	-9.100693702697754	-1329.0712890625	783.3672485351562	-44.59274291992188	-1327.203369140625	870.492919921875	-26.55085372924805	-1394.024658203125	861.3843383789062	7.8807692527771	-1451.541381835938	1763.504638671875	-233.6550598144531	-1292.339477539062	1814.089233398438	-377.7945556640625	-1284.634399414062	1823.9716796875	-248.3029022216797	-1466.233276367188	1757.802368164062	-368.0426330566406	-1483.126708984375	1034.01806640625	-473.8949584960938	-1469.244018554688	1007.035766601562	-107.257209777832	-1378.183837890625	1077.391723632812	-156.5082550048828	-1375.157958984375	1089.9482421875	-420.8894653320312	-1255.31298828125	574.8338623046875	-452.9258422851562	-1341.637451171875	702.534423828125	-478.0300598144531	-1330.04638671875	54.40065765380859	-464.2866821289062	-1337.340087890625	313.2288818359375	-481.6194152832031	-1099.333374023438	81.22712707519531	-453.9434814453125	-1167.751342773438	74.05141448974609	-402.780029296875	-1212.573120117188	60.37016677856445	-509.1780700683594	-1385.526123046875	49.58179473876953	-389.49755859375	-1476.55224609375	513.4430541992188	-180.1836242675781	-1448.988891601562	791.4221801757812	-128.9815063476562	-1670.278076171875	28.7564754486084	-222.0234527587891	-1523.471435546875	380.4564208984375	-175.8731689453125	-1435.437133789062	43.33495330810547	-253.2426910400391	-1490.594360351562	30.94460868835449	-299.4705200195312	-1536.531982421875	39.37964248657227	-189.666259765625	-1724.693359375	33.91664886474609	-276.6273803710938	
